<svg height="58" xmlns="http://www.w3.org/2000/svg" class="iconLeft" width="56">
 <!---->
 <defs>
  <linearGradient y2="0%" x2="100%" y1="0%" x1="0%" id="e0aa198e-8d95-421b-b187-82cb797a30f9" gradientTransform="rotate(25)">
   <stop stop-color="#333" offset="0%"/>
   <stop stop-color="#FF6C00" offset="100%"/>
  </linearGradient>
 </defs>
 <!---->
 <g>
  <title>background</title>
  <rect fill="none" id="canvas_background" height="60" y="-1" x="-1" width="60"/>
 </g>
 <g>
  <title>Layer 1</title>
  <g transform="matrix(3.04333, 0, 0, 3.04333, 82.5477, 122.2)" fill="#D78448" id="a80eddd7-7a24-4019-ae0a-f844656a65ea">
   
  </g>
  <g transform="matrix(0.508609, 0, 0, 0.508609, 30.1934, 124.57)" fill="url(#e0aa198e-8d95-421b-b187-82cb797a30f9)" id="dbd09def-379d-4baf-a33a-6e53be226984">
   <path id="svg_2" d="m-29.11931,-164.51557l1.747,0a4.825,4.825 0 0 1 4.812,4.813l0,9.645a4.825,4.825 0 0 1 -4.812,4.813l-9.645,0a4.826,4.826 0 0 1 -4.814,-4.813l0,-9.645a4.826,4.826 0 0 1 4.814,-4.813l7.898,0zm21.084,0l1.746,0c2.645,0 4.811,2.165 4.811,4.813l0,9.645a4.826,4.826 0 0 1 -4.811,4.813l-9.648,0a4.825,4.825 0 0 1 -4.811,-4.813l0,-9.645a4.826,4.826 0 0 1 4.811,-4.813l7.902,0zm21.084,0l1.742,0a4.827,4.827 0 0 1 4.814,4.813l0,9.645a4.826,4.826 0 0 1 -4.814,4.813l-9.644,0a4.826,4.826 0 0 1 -4.812,-4.813l0,-9.645a4.828,4.828 0 0 1 4.812,-4.813l7.902,0zm-42.168,-20.753l1.747,0c2.648,0 4.812,2.168 4.812,4.817l0,9.641c0,2.649 -2.164,4.817 -4.812,4.817l-9.645,0c-2.649,0 -4.814,-2.168 -4.814,-4.817l0,-9.641c0,-2.649 2.165,-4.817 4.814,-4.817l7.898,0zm0,-20.916l1.747,0c2.648,0 4.812,2.168 4.812,4.816l0,9.642c0,2.648 -2.164,4.816 -4.812,4.816l-9.645,0c-2.649,0 -4.814,-2.168 -4.814,-4.816l0,-9.642c0,-2.648 2.165,-4.816 4.814,-4.816l7.898,0zm21.084,20.916l1.746,0c2.645,0 4.811,2.165 4.811,4.813l0,9.645c0,2.649 -2.166,4.817 -4.811,4.817l-9.648,0c-2.646,0 -4.811,-2.168 -4.811,-4.817l0,-9.645a4.826,4.826 0 0 1 4.811,-4.813l7.902,0zm0,-28.512l1.746,0c2.645,0 4.811,2.165 4.811,4.813l0,9.645c0,2.649 -2.166,4.817 -4.811,4.817l-9.648,0c-2.646,0 -4.811,-2.168 -4.811,-4.817l0,-9.645a4.826,4.826 0 0 1 4.811,-4.813l7.902,0zm21.084,9.638l1.742,0c2.648,0 4.814,2.168 4.814,4.817l0,9.641c0,2.649 -2.166,4.817 -4.814,4.817l-9.644,0c-2.645,0 -4.812,-2.168 -4.812,-4.817l0,-9.641c0,-2.649 2.168,-4.817 4.812,-4.817l7.902,0zm0,-31.102l1.742,0c2.648,0 4.814,2.168 4.814,4.817l0,9.641c0,2.649 -2.166,4.817 -4.814,4.817l-9.644,0c-2.645,0 -4.812,-2.168 -4.812,-4.817l0,-9.641c-0.001,-2.649 2.167,-4.817 4.812,-4.817l7.902,0z"/>
  </g>
 </g>
</svg>